# xmcd CD database file
#
# Track frame offsets:
#	151
#	27152
#	60015
#	93628
#	115995
#	163920
#	192112
#	217151
#
# Disc length: 3453 seconds
#
# Revision: 0
# Processed by: cddbd v1.5PL3 Copyright (c) Steve Scherf et al.
# Submitted via: CDex 1.60beta1
#
DISCID=6a0d7b08
DTITLE=Ralph Sutton - Echoes of Swing: The Complete Hamburg Concert [CD1]
DYEAR=1997
DGENRE=Jazz
TTITLE0=Fine And Dandy 
TTITLE1=Moonglow 
TTITLE2=California, Here I Come 
TTITLE3=Clothesline Ballett 
TTITLE4=Song Of The Wanderer 
TTITLE5=Sweet Lorraine 
TTITLE6=Medley: Happy Birthday/Blame It On My Youth 
TTITLE7=Limehouse Blues 
EXTD=YEAR: 1997
EXTT0=
EXTT1=
EXTT2=
EXTT3=
EXTT4=
EXTT5=
EXTT6=
EXTT7=
PLAYORDER=
